<svg height="512" viewBox="0 0 64 64" width="512" xmlns="http://www.w3.org/2000/svg"><g id="diagnosis_clear" data-name="diagnosis clear"><rect fill="#e0e0e0" height="49" rx="1" width="40" x="12" y="12"/><rect fill="#f5f5f5" height="41" rx="1" width="32" x="16" y="16"/><path d="m32 2a4 4 0 0 0 -4 4v4a1 1 0 0 0 1 1h6a1 1 0 0 0 1-1v-4a4 4 0 0 0 -4-4z" fill="#b0bec5"/><rect fill="#b0bec5" height="13" rx="1" width="18" x="23" y="9"/><path d="m36 37h-8a1 1 0 0 1 0-2h8a1 1 0 0 1 0 2z" fill="#64dd17"/><g fill="#64b5f6"><path d="m42 42h-20a1 1 0 0 1 0-2h20a1 1 0 0 1 0 2z"/><path d="m42 47h-20a1 1 0 0 1 0-2h20a1 1 0 0 1 0 2z"/><path d="m42 52h-20a1 1 0 0 1 0-2h20a1 1 0 0 1 0 2z"/></g><path d="m32 34a1 1 0 0 1 -.71-.29l-3-3a1 1 0 0 1 1.42-1.42l2.11 2.11 4.33-6.93a1 1 0 1 1 1.7 1.06l-5 8a1 1 0 0 1 -.74.46z" fill="#64dd17"/></g></svg>