<svg id="Flat" height="512" viewBox="0 0 64 64" width="512" xmlns="http://www.w3.org/2000/svg">
    <path d="m46 37h4a2 2 0 0 0 2-2 2 2 0 0 0 -2-2h-4" fill="#f7d7c7" />
    <path d="m51.9293 35.5a1.9758 1.9758 0 0 0 -1.9293-2.5h-4v1h4a1.9955 1.9955 0 0 1 1.9293 1.5z" fill="#eec0ae" />
    <path d="m46 33h9a2 2 0 0 0 2-2 2 2 0 0 0 -2-2h-9" fill="#f9e0d3" />
    <path d="m56.9293 31.5a1.9758 1.9758 0 0 0 -1.9293-2.5h-9v1h9a1.9955 1.9955 0 0 1 1.9293 1.5z" fill="#eec0ae" />
    <path d="m46 29h11.8a2.1072 2.1072 0 0 0 2.2-2 2.1072 2.1072 0 0 0 -2.2-2h-11.8" fill="#f7d7c7" />
    <path d="m59.9222 27.5a1.8149 1.8149 0 0 0 .0778-.5 2.1072 2.1072 0 0 0 -2.2-2h-11.8v1h11.8a2.1668 2.1668 0 0 1 2.1222 1.5z" fill="#eec0ae" />
    <path d="m46 25h9a2 2 0 0 0 2-2 2 2 0 0 0 -2-2h-9" fill="#f9e0d3" />
    <path d="m56.9293 23.5a1.9758 1.9758 0 0 0 -1.9293-2.5h-9v1h9a1.9955 1.9955 0 0 1 1.9293 1.5z" fill="#eec0ae" />
    <path d="m52 54a4.9464 4.9464 0 0 0 -.2065-1.3455 4.99 4.99 0 1 0 -6.151-7.06 4.9945 4.9945 0 1 0 -3.6425 8.4055 5 5 0 0 0 10 0z" fill="#f1f2f4" />
    <path d="m35 22a4.9464 4.9464 0 0 0 -.2065-1.3455 4.99 4.99 0 1 0 -6.151-7.06 4.9945 4.9945 0 1 0 -3.6425 8.4055 5 5 0 0 0 10 0z" fill="#f1f2f4" />
    <rect fill="#78dee3" height="18" rx="4" transform="matrix(0 1 -1 0 72.086 -5.965)" width="34" x="22.025" y="24.061" />
    <circle cx="20" cy="53" fill="#f1f2f4" r="3" />
    <circle cx="53" cy="10" fill="#f1f2f4" r="5" />
    <g fill="#f7d7c7">
        <path d="m30 45h6a2 2 0 0 0 2-2 2 2 0 0 0 -2-2h-6" />
        <path d="m30 41h10a2 2 0 0 0 2-2 2 2 0 0 0 -2-2h-10" />
        <path d="m30 37h12.8a2.1072 2.1072 0 0 0 2.2-2 2.1072 2.1072 0 0 0 -2.2-2h-12.8" />
        <path d="m30 33h10a2 2 0 0 0 2-2 2 2 0 0 0 -2-2h-13" />
        <path d="m31 45h-8.7889a4 4 0 0 1 -2.2188-.6718l-3.9846-2.6564a4 4 0 0 0 -2.2188-.6718h-9.7889v-12h9.7889a4 4 0 0 0 2.2188-.6718l3.9846-2.6564a4 4 0 0 1 2.2188-.6718h10.7889a4 4 0 0 1 -4 4h1" />
    </g>
    <path d="m37.9293 43.5a1.9758 1.9758 0 0 0 -1.9293-2.5h-6a1 1 0 0 0 1 1h5a1.9955 1.9955 0 0 1 1.9293 1.5z" fill="#eec0ae" />
    <path d="m44.9222 35.5a1.8149 1.8149 0 0 0 .0778-.5 2.1072 2.1072 0 0 0 -2.2-2h-12.8a1 1 0 0 0 1 1h11.8a2.1668 2.1668 0 0 1 2.1222 1.5z" fill="#eec0ae" />
    <path d="m40 30a1.9955 1.9955 0 0 1 1.9293 1.5 1.9758 1.9758 0 0 0 -1.9293-2.5h-13a1 1 0 0 0 1 1z" fill="#eec0ae" />
    <path d="m41.9293 39.5a1.9758 1.9758 0 0 0 -1.9293-2.5h-10a1 1 0 0 0 1 1h9a1.9955 1.9955 0 0 1 1.9293 1.5z" fill="#eec0ae" />
</svg>