<?xml version="1.0" encoding="iso-8859-1"?>
<!-- Generator: Adobe Illustrator 21.0.0, SVG Export Plug-In . SVG Version: 6.00 Build 0)  -->
<svg xmlns="http://www.w3.org/2000/svg" xmlns:xlink="http://www.w3.org/1999/xlink" version="1.1" id="Capa_1" x="0px" y="0px" viewBox="0 0 508.005 508.005" style="enable-background:new 0 0 508.005 508.005;" xml:space="preserve" width="512" height="512">
<g>
	<path style="fill:#FF3D43;" d="M165.721,148.982c-2.97-21.713-18.34-30.651-31.733-31.777c-10.794-0.914-20.97,2.729-27.746,9.264   c-6.775-6.535-16.956-10.176-27.747-9.264c-13.393,1.126-28.763,10.065-31.733,31.777c-5.932,43.361,53.66,72.866,56.2,74.102   c1.035,0.503,2.157,0.755,3.279,0.755c1.122,0,2.244-0.252,3.279-0.755C112.061,221.848,171.653,192.343,165.721,148.982z"/>
	<g>
		<path style="fill:#D72E2E;" d="M165.721,148.982c-2.97-21.713-18.34-30.651-31.733-31.777c-7.015-0.594-13.761,0.746-19.49,3.544    c9.052,4.479,16.908,13.357,18.943,28.233c4.271,31.221-25.426,55.257-43.339,66.731c6.965,4.461,12.15,7.025,12.861,7.37    c1.035,0.503,2.157,0.755,3.279,0.755c1.122,0,2.244-0.252,3.279-0.755C112.061,221.848,171.653,192.343,165.721,148.982z"/>
	</g>
	<path style="fill:#FFC89F;" d="M440.079,167.741c-19.202-30.638-40.584-60.431-60.209-83.89   c-14.858-17.761-36.349-40.995-54.354-50.815c-14.268-7.783-36.849-14.186-60.405-17.126c-14.814-1.851-41.905-3.73-56.916,4.468   c-13.152,7.182-19.227,33.674-21.679,48.825c-3.915,24.198-4.397,56.844,7.127,69.209c5.963,6.398,14.751,9.779,25.419,9.778   c0.015,0,0.032,0,0.047,0c16.689-0.015,35.796-8.527,47.546-21.182c4.502-4.85,6.512-4.357,16.987,0.918   c9.278,4.673,21.983,11.072,40.376,9.028c0.114-0.013,0.197-0.014,0.243-0.014c0.409,0.345,2.712,2.798,3.888,15.051   c0.961,10.025,0.883,23.369,0.8,37.498c-0.169,28.797-0.355,60.469,6.96,85.257c-10.269-4.917-23.9-10.21-39.924-13.499   c-32.179-6.605-80.138-5.974-128.494,33.055c-6.229-5.183-17.782-13.729-32.888-20.185c-30.669-13.105-61.232-11.265-88.384,5.328   c-15.988,9.771-28.684,25.245-36.713,44.752c-7.379,17.925-10.56,38.37-9.2,59.124c2.803,42.763,24.381,78.131,56.315,92.303   c29.037,12.886,91.583,18.07,146.169,18.07c40.013,0,75.75-2.786,90.867-7.367c21.245-6.439,72.178-26.456,118.406-52.765   c61.826-35.185,94.073-69.199,95.845-101.098C510.584,284.31,456.667,194.208,440.079,167.741z"/>
	<path style="fill:#F7B081;" d="M507.995,328.882c-0.002-6.747-0.931-13.482-2.292-20.08   c-10.192-49.647-51.477-118.49-65.624-141.062c-19.202-30.638-40.584-60.431-60.209-83.89   c-14.858-17.761-36.349-40.995-54.354-50.815c-14.268-7.783-36.849-14.186-60.405-17.126c-7.792-0.973-18.98-1.953-30.021-1.471   c21.85,3.165,42.427,9.228,55.752,16.497c18.005,9.82,39.496,33.055,54.354,50.815c19.625,23.459,41.008,53.252,60.21,83.89   c16.588,26.468,70.505,116.569,67.83,164.725c-0.22,3.951-0.908,7.935-2.062,11.95c-3.831,13.325-12.409,24.766-23.684,32.835   c-10.949,7.836-23.422,15.742-37.421,23.709c-46.229,26.309-97.161,46.326-118.406,52.765c-15.117,4.581-50.854,7.367-90.867,7.367   c-54.586,0-117.132-5.185-146.169-18.07C26.8,428.571,6.842,400.125,0.312,364.72c-0.405,6.133-0.415,12.353-0.005,18.602   c2.803,42.763,24.381,78.131,56.315,92.303c18.585,8.247,50.901,13.335,86.066,15.933c15.33,1.127,30.695,1.776,46.065,2.021   c4.679,0.075,9.359,0.116,14.038,0.116c40.013,0,75.75-2.786,90.867-7.367c21.245-6.439,72.178-26.456,118.406-52.765   c61.826-35.185,94.073-69.199,95.845-101.098C507.975,331.272,507.995,330.077,507.995,328.882z"/>
</g>















</svg>
