<svg id="Layer_1" height="512" viewBox="0 0 128 128" width="512" xmlns="http://www.w3.org/2000/svg" data-name="Layer 1"><path d="m103.81 7.02v114.48h-79.62v-115h74.81a22.435 22.435 0 0 1 4.81.52z" fill="#d7e4ef"/><path d="m103.81 7.02v114.48h-79.62v-115h74.81a22.435 22.435 0 0 1 4.81.52z" fill="#d7e4ef"/><path d="m111.5 24h-7.5v-7.5h-10v7.5h-7.5v10h7.5v7.5h10v-7.5h7.5z" fill="#d7e4ef"/><path d="m121.5 29a22.5 22.5 0 1 1 -17.69-21.98 22.484 22.484 0 0 1 17.69 21.98z" fill="#ff4945"/><path d="m111.5 24h-7.5v-7.5h-10v7.5h-7.5v10h7.5v7.5h10v-7.5h7.5z" fill="#d7e4ef"/><g fill="#102434"><path d="m103.81 58.75a2 2 0 0 0 -2 2v58.75h-75.62v-42.5a2 2 0 0 0 -4 0v44.5a2 2 0 0 0 2 2h79.62a2 2 0 0 0 2-2v-60.75a2 2 0 0 0 -2-2z"/><path d="m24.19 68.75a2 2 0 0 0 2-2v-6.5a2 2 0 0 0 -4 0v6.5a2 2 0 0 0 2 2z"/><path d="m120.083 17a1.75 1.75 0 1 0 -3.041 1.732 20.763 20.763 0 1 1 -21.093-10.232h3.051a1.978 1.978 0 0 0 .9-.226 20.77 20.77 0 0 1 3.535.455 20.479 20.479 0 0 1 7.866 3.558 1.75 1.75 0 0 0 2.076-2.818 24.167 24.167 0 0 0 -13.377-4.692 1.979 1.979 0 0 0 -1-.277h-74.81a2 2 0 0 0 -2 2v43.875a2 2 0 0 0 4 0v-41.875h59.88a24.231 24.231 0 1 0 34.013 8.5z"/><path d="m94 43.25h10a1.75 1.75 0 0 0 1.75-1.75v-5.75h5.75a1.75 1.75 0 0 0 1.75-1.75v-10a1.75 1.75 0 0 0 -1.75-1.75h-5.75v-5.75a1.75 1.75 0 0 0 -1.75-1.75h-10a1.75 1.75 0 0 0 -1.75 1.75v5.75h-5.75a1.75 1.75 0 0 0 -1.75 1.75v10a1.75 1.75 0 0 0 1.75 1.75h5.75v5.75a1.75 1.75 0 0 0 1.75 1.75zm-5.75-11v-6.5h5.75a1.75 1.75 0 0 0 1.75-1.75v-5.75h6.5v5.75a1.75 1.75 0 0 0 1.75 1.75h5.75v6.5h-5.75a1.75 1.75 0 0 0 -1.75 1.75v5.75h-6.5v-5.75a1.75 1.75 0 0 0 -1.75-1.75z"/><path d="m40.5 34.125h26.609a2 2 0 0 0 0-4h-26.609a2 2 0 0 0 0 4z"/><path d="m40.5 46.875h26.609a2 2 0 0 0 0-4h-26.609a2 2 0 0 0 0 4z"/><path d="m40.5 59.625h43.5a2 2 0 0 0 0-4h-43.5a2 2 0 0 0 0 4z"/><path d="m40.5 72.375h43.5a2 2 0 0 0 0-4h-43.5a2 2 0 0 0 0 4z"/><path d="m40.5 85.125h43.5a2 2 0 0 0 0-4h-43.5a2 2 0 0 0 0 4z"/><path d="m40.5 97.875h43.5a2 2 0 0 0 0-4h-43.5a2 2 0 0 0 0 4z"/></g></svg>