<svg id="flat" height="512" viewBox="0 0 64 64" width="512" xmlns="http://www.w3.org/2000/svg"><path d="m49.3887 13.6113a1 1 0 0 1 -.7071-1.707l5.6573-5.6572a1 1 0 1 1 1.414 1.414l-5.6572 5.6573a.9967.9967 0 0 1 -.707.2929z" fill="#f0502e"/><path d="m56.46 9.3682a.9969.9969 0 0 1 -.7071-.293l-2.8281-2.8281a1 1 0 0 1 1.4141-1.4141l2.8281 2.8281a1 1 0 0 1 -.707 1.7071z" fill="#f0502e"/><path d="m35.9541 27.0459a1 1 0 0 1 -.707-1.707l5.6572-5.6573a1 1 0 1 1 1.4141 1.4141l-5.6573 5.6572a.9967.9967 0 0 1 -.707.293z" fill="#f0502e"/><path d="m37.3682 28.46a.9969.9969 0 0 1 -.7071-.293l-2.8281-2.8281a1 1 0 0 1 1.4141-1.4141l2.8281 2.8281a1 1 0 0 1 -.707 1.7071z" fill="#f0502e"/><path d="m55.0459 27.0459a.9967.9967 0 0 1 -.707-.293l-5.6573-5.6572a1 1 0 1 1 1.4141-1.4141l5.6572 5.6573a1 1 0 0 1 -.707 1.707z" fill="#f0502e"/><path d="m53.6318 28.46a1 1 0 0 1 -.707-1.7071l2.8281-2.8281a1 1 0 1 1 1.4141 1.4141l-2.8281 2.8281a.9969.9969 0 0 1 -.7071.293z" fill="#f0502e"/><path d="m41.6113 13.6113a.9967.9967 0 0 1 -.707-.2929l-5.6572-5.6573a1 1 0 1 1 1.414-1.414l5.6573 5.6572a1 1 0 0 1 -.7071 1.707z" fill="#f0502e"/><path d="m34.54 9.3682a1 1 0 0 1 -.707-1.7071l2.8281-2.8281a1 1 0 0 1 1.4141 1.4141l-2.8281 2.8281a.9969.9969 0 0 1 -.7071.293z" fill="#f0502e"/><circle cx="45.5" cy="16.648" fill="#ff6946" r="8.5"/><g fill="#f0502e"><path d="m45.5 12a1 1 0 0 1 -1-1v-8a1 1 0 0 1 2 0v8a1 1 0 0 1 -1 1z"/><path d="m47.5 4h-4a1 1 0 0 1 0-2h4a1 1 0 0 1 0 2z"/><path d="m45.5 31a1 1 0 0 1 -1-1v-8a1 1 0 0 1 2 0v8a1 1 0 0 1 -1 1z"/><path d="m47.5 31h-4a1 1 0 0 1 0-2h4a1 1 0 0 1 0 2z"/><path d="m59 17.5h-8a1 1 0 0 1 0-2h8a1 1 0 0 1 0 2z"/><path d="m59 19.5a1 1 0 0 1 -1-1v-4a1 1 0 0 1 2 0v4a1 1 0 0 1 -1 1z"/><path d="m40 17.5h-8a1 1 0 0 1 0-2h8a1 1 0 0 1 0 2z"/><path d="m32 19.5a1 1 0 0 1 -1-1v-4a1 1 0 0 1 2 0v4a1 1 0 0 1 -1 1z"/><path d="m20.5352 34.4648a1 1 0 0 1 -.7071-1.707l4.95-4.95a1 1 0 0 1 1.4141 1.4141l-4.95 4.95a.9967.9967 0 0 1 -.707.2929z"/><path d="m26.8994 30.9287a.9964.9964 0 0 1 -.707-.293l-2.8281-2.8281a1 1 0 0 1 1.414-1.414l2.8281 2.8281a1 1 0 0 1 -.707 1.707z"/><path d="m8.5146 46.4854a1 1 0 0 1 -.707-1.7071l4.2432-4.2431a1 1 0 1 1 1.414 1.414l-4.2431 4.2432a.9969.9969 0 0 1 -.7071.293z"/><path d="m9.9287 47.8994a.9964.9964 0 0 1 -.707-.293l-2.8281-2.8281a1 1 0 0 1 1.414-1.414l2.8281 2.8281a1 1 0 0 1 -.707 1.707z"/><path d="m25.4854 46.4854a.9969.9969 0 0 1 -.7071-.293l-4.95-4.95a1 1 0 0 1 1.4141-1.4141l4.95 4.95a1 1 0 0 1 -.707 1.7071z"/><path d="m24.0713 47.8994a1 1 0 0 1 -.707-1.707l2.8281-2.8281a1 1 0 0 1 1.414 1.414l-2.8281 2.8281a.9964.9964 0 0 1 -.707.293z"/><path d="m12.7578 33.7578a.9964.9964 0 0 1 -.707-.293l-4.2432-4.2431a1 1 0 0 1 1.4141-1.4141l4.2431 4.2432a1 1 0 0 1 -.707 1.707z"/><path d="m7.1006 30.9287a1 1 0 0 1 -.707-1.707l2.8281-2.8281a1 1 0 0 1 1.414 1.414l-2.8281 2.8281a.9964.9964 0 0 1 -.707.293z"/></g><circle cx="17" cy="37" fill="#ff6946" r="7"/><path d="m17 33a1 1 0 0 1 -1-1v-7a1 1 0 0 1 2 0v7a1 1 0 0 1 -1 1z" fill="#f0502e"/><path d="m19 26h-4a1 1 0 0 1 0-2h4a1 1 0 0 1 0 2z" fill="#f0502e"/><path d="m17 50a1 1 0 0 1 -1-1v-6a1 1 0 0 1 2 0v6a1 1 0 0 1 -1 1z" fill="#f0502e"/><path d="m19 50h-4a1 1 0 0 1 0-2h4a1 1 0 0 1 0 2z" fill="#f0502e"/><path d="m29 38h-7a1 1 0 0 1 0-2h7a1 1 0 0 1 0 2z" fill="#f0502e"/><path d="m29 40a1 1 0 0 1 -1-1v-4a1 1 0 0 1 2 0v4a1 1 0 0 1 -1 1z" fill="#f0502e"/><path d="m11 38h-6a1 1 0 0 1 0-2h6a1 1 0 0 1 0 2z" fill="#f0502e"/><path d="m5 40a1 1 0 0 1 -1-1v-4a1 1 0 0 1 2 0v4a1 1 0 0 1 -1 1z" fill="#f0502e"/><path d="m49 62a1 1 0 0 1 -1-1v-6a1 1 0 0 1 2 0v6a1 1 0 0 1 -1 1z" fill="#f0502e"/><path d="m51 62h-4a1 1 0 0 1 0-2h4a1 1 0 0 1 0 2z" fill="#f0502e"/><path d="m45.5352 50a.9949.9949 0 0 1 -.4991-.1338l-5.1963-3a1 1 0 0 1 1-1.7324l5.1963 3a1 1 0 0 1 -.5009 1.8662z" fill="#f0502e"/><path d="m39.3389 48.7324a1 1 0 0 1 -.8653-1.5l2-3.4648a1 1 0 0 1 1.7325 1l-2 3.4648a1.0012 1.0012 0 0 1 -.8672.5z" fill="#f0502e"/><path d="m52.4648 50a1 1 0 0 1 -.5009-1.8662l5.1963-3a1 1 0 1 1 1 1.7324l-5.1963 3a.9949.9949 0 0 1 -.4991.1338z" fill="#f0502e"/><path d="m58.6611 48.7324a1.0012 1.0012 0 0 1 -.8672-.5l-2-3.4648a1 1 0 0 1 1.7325-1l2 3.4648a1 1 0 0 1 -.8653 1.5z" fill="#f0502e"/><circle cx="49" cy="51" fill="#ff6946" r="6"/><path d="m49 48a1 1 0 0 1 -1-1v-6a1 1 0 0 1 2 0v6a1 1 0 0 1 -1 1z" fill="#f0502e"/><path d="m51 42h-4a1 1 0 0 1 0-2h4a1 1 0 0 1 0 2z" fill="#f0502e"/><path d="m57.6592 57a.9946.9946 0 0 1 -.499-.1338l-5.1963-3a1 1 0 1 1 1-1.7324l5.1963 3a1 1 0 0 1 -.501 1.8662z" fill="#f0502e"/><path d="m56.6592 58.7324a1 1 0 0 1 -.8653-1.5l2-3.4648a1 1 0 0 1 1.7325 1l-2 3.4648a1.0012 1.0012 0 0 1 -.8672.5z" fill="#f0502e"/><path d="m40.3408 57a1 1 0 0 1 -.501-1.8662l5.1963-3a1 1 0 1 1 1 1.7324l-5.1963 3a.9946.9946 0 0 1 -.499.1338z" fill="#f0502e"/><path d="m41.3408 58.7324a1.0012 1.0012 0 0 1 -.8672-.5l-2-3.4648a1 1 0 0 1 1.7325-1l2 3.4648a1 1 0 0 1 -.8653 1.5z" fill="#f0502e"/></svg>